# Blender v3.1.2 OBJ File: ''
# www.blender.org
mtllib food.mtl
o Icosphere
v 0.000000 -1.000000 0.000000
v 0.723607 -0.447220 0.525725
v -0.276388 -0.447220 0.850649
v -0.894426 -0.447216 0.000000
v -0.276388 -0.447220 -0.850649
v 0.723607 -0.447220 -0.525725
v 0.276388 0.447220 0.850649
v -0.723607 0.447220 0.525725
v -0.723607 0.447220 -0.525725
v 0.276388 0.447220 -0.850649
v 0.894426 0.447216 0.000000
v 0.000000 1.000000 0.000000
v -0.162456 -0.850654 0.499995
v 0.425323 -0.850654 0.309011
v 0.262869 -0.525738 0.809012
v 0.850648 -0.525736 0.000000
v 0.425323 -0.850654 -0.309011
v -0.525730 -0.850652 0.000000
v -0.688189 -0.525736 0.499997
v -0.162456 -0.850654 -0.499995
v -0.688189 -0.525736 -0.499997
v 0.262869 -0.525738 -0.809012
v 0.951058 0.000000 0.309013
v 0.951058 0.000000 -0.309013
v 0.000000 0.000000 1.000000
v 0.587786 0.000000 0.809017
v -0.951058 0.000000 0.309013
v -0.587786 0.000000 0.809017
v -0.587786 0.000000 -0.809017
v -0.951058 0.000000 -0.309013
v 0.587786 0.000000 -0.809017
v 0.000000 0.000000 -1.000000
v 0.688189 0.525736 0.499997
v -0.262869 0.525738 0.809012
v -0.850648 0.525736 0.000000
v -0.262869 0.525738 -0.809012
v 0.688189 0.525736 -0.499997
v 0.162456 0.850654 0.499995
v 0.525730 0.850652 0.000000
v -0.425323 0.850654 0.309011
v -0.425323 0.850654 -0.309011
v 0.162456 0.850654 -0.499995
vt 0.772727 0.393651
vt 0.636364 0.472382
vt 0.590909 0.393651
vt 0.727273 0.157461
vt 0.772727 0.236191
vt 0.681818 0.236191
vt 0.090910 0.314921
vt 0.136365 0.393651
vt 0.045455 0.393651
vt 0.954545 0.078731
vt 0.863636 0.078731
vt 0.909091 0.000000
vt 0.545455 0.000000
vt 0.590909 0.078731
vt 0.500000 0.078731
vt 0.272728 0.157461
vt 0.363637 0.157461
vt 0.318182 0.236191
vt 0.136365 0.236191
vt 0.045455 0.236191
vt 0.409092 0.236191
vt 0.454546 0.314921
vt 0.363637 0.314921
vt 0.090910 0.157461
vt 0.954545 0.236191
vt 0.909091 0.157461
vt 0.727273 0.314921
vt 0.636364 0.314921
vt 0.227273 0.236191
vt 0.181819 0.314921
vt 0.818182 0.157461
vt 0.863636 0.236191
vt 0.272728 0.314921
vt 0.227273 0.393651
vt 0.000000 0.314921
vt 0.545455 0.157461
vt 0.636364 0.157461
vt 0.772727 0.078731
vt 0.681818 0.078731
vt 0.727273 0.000000
vt 0.545455 0.314921
vt 0.500000 0.393651
vt 0.454546 0.157461
vt 0.318182 0.078731
vt 0.090910 0.472382
vt 0.409092 0.393651
vt 0.454546 0.472382
vt 0.909091 0.314921
vt 0.818182 0.314921
vt 0.181819 0.157461
vt 0.500000 0.236191
vt 0.590909 0.236191
vt 0.318182 0.393651
vt 0.272728 0.472382
vt 0.863636 0.393651
vt 0.681818 0.393651
vt 0.136365 0.078731
vt 1.000000 0.157461
vt 0.363637 0.000000
vt 0.227273 0.078731
vt 0.409092 0.078731
vn -0.1024 0.9435 -0.3151
vn -0.7947 -0.1876 -0.5773
vn -0.1876 0.7947 0.5773
vn -0.2680 -0.9435 0.1947
vn 0.1024 -0.9435 -0.3151
vn 0.9050 -0.3304 0.2680
vn -0.3035 0.1876 0.9342
vn 0.8897 0.3304 -0.3151
vn -0.5746 -0.3304 0.7488
vn -0.5346 0.3304 -0.7779
vn 0.3066 0.1256 0.9435
vn -0.9921 -0.1256 0.0000
vn 0.4089 0.6617 0.6284
vn -0.4713 0.6617 0.5831
vn -0.7240 -0.6617 -0.1947
vn 0.1876 -0.7947 -0.5773
vn -0.5746 -0.3304 -0.7488
vn -0.2680 -0.9435 -0.1947
vn 0.4089 0.6617 -0.6284
vn 0.7002 -0.6617 -0.2680
vn 0.7002 -0.6617 0.2680
vn -0.1024 0.9435 0.3151
vn 0.0385 0.6617 -0.7488
vn 0.2680 0.9435 -0.1947
vn 0.7947 0.1876 0.5773
vn -0.8026 0.1256 0.5831
vn -0.9050 0.3304 -0.2680
vn 0.5346 -0.3304 0.7779
vn 0.9822 -0.1876 0.0000
vn -0.9050 0.3304 0.2680
vn 0.5346 -0.3304 -0.7779
vn 0.3035 -0.1876 -0.9342
vn 0.5746 0.3304 -0.7488
vn 0.2680 0.9435 0.1947
vn -0.0247 0.3304 -0.9435
vn -0.8897 -0.3304 0.3151
vn 0.9921 0.1256 0.0000
vn -0.6071 0.7947 0.0000
vn -0.4713 0.6617 -0.5831
vn -0.0385 -0.6617 0.7488
vn -0.4089 -0.6617 -0.6284
vn 0.7240 0.6617 0.1947
vn -0.4089 -0.6617 0.6284
vn 0.1024 -0.9435 0.3151
vn 0.4713 -0.6617 0.5831
vn 0.0247 -0.3304 0.9435
vn -0.3313 0.9435 0.0000
vn -0.8897 -0.3304 -0.3151
vn 0.0385 0.6617 0.7488
vn -0.4911 -0.7947 0.3568
vn -0.0247 0.3304 0.9435
vn 0.7947 0.1876 -0.5773
vn -0.3066 -0.1256 0.9435
vn -0.8026 0.1256 -0.5831
vn 0.5746 0.3304 0.7488
vn -0.7240 -0.6617 0.1947
vn -0.0385 -0.6617 -0.7488
vn -0.3066 -0.1256 -0.9435
vn -0.4911 -0.7947 -0.3568
vn 0.4713 -0.6617 -0.5831
vn 0.6071 -0.7947 0.0000
vn -0.1876 0.7947 -0.5773
vn 0.4911 0.7947 -0.3568
vn 0.8897 0.3304 0.3151
vn -0.5346 0.3304 0.7779
vn -0.9822 0.1876 0.0000
vn 0.8026 -0.1256 0.5831
vn 0.9050 -0.3304 -0.2680
vn 0.8026 -0.1256 -0.5831
vn 0.0247 -0.3304 -0.9435
vn 0.3066 0.1256 -0.9435
vn 0.4911 0.7947 0.3568
vn -0.3035 0.1876 -0.9342
vn -0.7947 -0.1876 0.5773
vn -0.7002 0.6617 0.2680
vn -0.7002 0.6617 -0.2680
vn 0.1876 -0.7947 0.5773
vn 0.7240 0.6617 -0.1947
vn 0.3313 -0.9435 0.0000
vn 0.3035 -0.1876 0.9342
usemtl None
s off
f 41/1/1 12/2/1 42/3/1
f 21/4/2 30/5/2 29/6/2
f 34/7/3 38/8/3 40/9/3
f 13/10/4 18/11/4 1/12/4
f 1/13/5 20/14/5 17/15/5
f 2/16/6 16/17/6 23/18/6
f 25/19/7 34/7/7 28/20/7
f 24/21/8 37/22/8 11/23/8
f 3/24/9 28/25/9 19/26/9
f 29/6/10 9/27/10 36/28/10
f 26/29/11 7/30/11 25/19/11
f 4/31/12 27/32/12 30/5/12
f 7/30/13 33/33/13 38/34/13
f 8/35/14 34/7/14 40/9/14
f 18/11/15 4/31/15 21/4/15
f 20/14/16 22/36/16 17/15/16
f 29/6/17 5/37/17 21/4/17
f 18/38/18 20/39/18 1/40/18
f 37/22/19 10/41/19 42/42/19
f 17/15/20 6/43/20 16/17/20
f 14/44/21 16/17/21 2/16/21
f 40/9/22 38/8/22 12/45/22
f 36/28/23 42/3/23 10/41/23
f 39/46/24 42/42/24 12/47/24
f 23/18/25 33/33/25 26/29/25
f 28/20/26 8/48/26 27/32/26
f 30/5/27 35/49/27 9/27/27
f 2/16/28 26/29/28 15/50/28
f 16/17/29 24/21/29 23/18/29
f 27/32/30 8/48/30 35/49/30
f 31/51/31 6/43/31 22/36/31
f 22/36/32 32/52/32 31/51/32
f 31/51/33 10/41/33 37/22/33
f 38/34/34 39/53/34 12/54/34
f 32/52/35 36/28/35 10/41/35
f 19/26/36 27/32/36 4/31/36
f 23/18/37 24/21/37 11/23/37
f 35/49/38 40/55/38 41/1/38
f 9/27/39 41/56/39 36/28/39
f 13/57/40 15/50/40 3/24/40
f 20/39/41 21/4/41 5/37/41
f 11/23/42 39/53/42 33/33/42
f 13/10/43 3/58/43 19/26/43
f 1/59/44 14/60/44 13/57/44
f 14/60/45 2/16/45 15/50/45
f 15/50/46 25/19/46 3/24/46
f 41/1/47 40/55/47 12/2/47
f 21/4/48 4/31/48 30/5/48
f 34/7/49 7/30/49 38/8/49
f 13/10/50 19/26/50 18/11/50
f 25/19/51 7/30/51 34/7/51
f 24/21/52 31/51/52 37/22/52
f 3/24/53 25/19/53 28/25/53
f 29/6/54 30/5/54 9/27/54
f 26/29/55 33/33/55 7/30/55
f 18/11/56 19/26/56 4/31/56
f 20/14/57 5/37/57 22/36/57
f 29/6/58 32/52/58 5/37/58
f 18/38/59 21/4/59 20/39/59
f 17/15/60 22/36/60 6/43/60
f 14/44/61 17/61/61 16/17/61
f 36/28/62 41/56/62 42/3/62
f 39/46/63 37/22/63 42/42/63
f 23/18/64 11/23/64 33/33/64
f 28/20/65 34/7/65 8/48/65
f 30/5/66 27/32/66 35/49/66
f 2/16/67 23/18/67 26/29/67
f 16/17/68 6/43/68 24/21/68
f 31/51/69 24/21/69 6/43/69
f 22/36/70 5/37/70 32/52/70
f 31/51/71 32/52/71 10/41/71
f 38/34/72 33/33/72 39/53/72
f 32/52/73 29/6/73 36/28/73
f 19/26/74 28/25/74 27/32/74
f 35/49/75 8/48/75 40/55/75
f 9/27/76 35/49/76 41/56/76
f 13/57/77 14/60/77 15/50/77
f 11/23/78 37/22/78 39/53/78
f 1/59/79 17/61/79 14/60/79
f 15/50/80 26/29/80 25/19/80
