# Blender v3.1.2 OBJ File: ''
# www.blender.org
mtllib HQ.mtl
o Cube_Cube.001
v -1.000000 -1.000000 1.000000
v -0.845937 0.276846 0.396585
v -0.399364 1.287128 0.838593
v 0.794655 0.276846 0.396585
v 0.794655 1.075575 0.396585
v 0.794655 1.331321 0.396585
v -0.399364 0.221414 0.838593
v 0.794655 2.130049 0.396585
v -0.399364 1.020143 0.838593
v 0.794655 0.276846 -0.402143
v -0.845937 1.311024 0.396585
v 0.794655 1.075575 -0.402143
v -0.845937 1.075575 0.396585
v 0.794655 1.331321 -0.402143
v -0.399364 2.085857 0.838593
v 0.794655 2.130049 -0.402143
v -0.399364 0.221414 -0.826164
v 0.399364 0.221414 0.838593
v 0.399364 1.020143 0.838593
v -0.845937 2.109753 0.396585
v -0.399364 1.331321 -0.826164
v 0.399364 1.287128 0.838593
v 0.399364 2.085857 0.838593
v -0.845937 0.276846 -0.402143
v -0.845937 1.075575 -0.402143
v -0.399364 1.020143 -0.826164
v -1.000000 2.546552 1.000000
v -0.845937 1.311024 -0.402143
v -0.399364 2.130049 -0.826164
v -0.845937 2.109753 -0.402143
v -1.000000 -1.000000 -1.000000
v 0.399364 0.221414 -0.826164
v -1.000000 2.546552 -1.000000
v 0.399364 1.020143 -0.826164
v 1.000000 -1.000000 1.000000
v 0.399364 1.331321 -0.826164
v 1.000000 2.546552 1.000000
v 0.399364 2.130049 -0.826164
v 1.000000 -1.000000 -1.000000
v 1.000000 2.546552 -1.000000
v -0.399364 1.331321 -1.000000
v -0.399364 2.130049 -1.000000
v 0.399364 2.130049 -1.000000
v 0.399364 1.331321 -1.000000
v -0.399364 0.221414 -1.000000
v -0.399364 1.020143 -1.000000
v 0.399364 1.020143 -1.000000
v 0.399364 0.221414 -1.000000
v -1.000000 1.311024 0.396585
v -1.000000 2.109753 0.396585
v -1.000000 2.109753 -0.402143
v -1.000000 1.311024 -0.402143
v -1.000000 0.276846 0.396585
v -1.000000 1.075575 0.396585
v -1.000000 1.075575 -0.402143
v -1.000000 0.276846 -0.402143
v -0.399364 2.085857 1.000000
v 0.399364 1.287128 1.000000
v 0.399364 2.085857 1.000000
v -0.399364 1.287128 1.000000
v 0.399364 1.020143 1.000000
v 0.399364 0.221414 1.000000
v -0.399364 0.221414 1.000000
v -0.399364 1.020143 1.000000
v 1.000000 2.130049 0.396585
v 1.000000 1.331321 -0.402143
v 1.000000 2.130049 -0.402143
v 1.000000 1.331321 0.396585
v 1.000000 1.075575 -0.402143
v 1.000000 0.276846 -0.402143
v 1.000000 0.276846 0.396585
v 1.000000 1.075575 0.396585
vt 0.465006 0.075427
vt 0.465006 0.175268
vt 0.375000 0.250000
vt 0.537906 0.075427
vt 0.521309 0.175268
vt 0.521309 0.075427
vt 0.625000 0.250000
vt 0.594210 0.075427
vt 0.625000 0.000000
vt 0.375000 0.500000
vt 0.461099 0.424921
vt 0.539337 0.325079
vt 0.517402 0.424921
vt 0.517402 0.325079
vt 0.625000 0.500000
vt 0.595640 0.325079
vt 0.375000 0.750000
vt 0.465006 0.674573
vt 0.539337 0.574732
vt 0.521309 0.674573
vt 0.521309 0.574732
vt 0.595640 0.674573
vt 0.595640 0.574732
vt 0.375000 1.000000
vt 0.461099 0.825080
vt 0.536222 0.825079
vt 0.517402 0.924921
vt 0.517402 0.825079
vt 0.625000 0.750000
vt 0.592525 0.924921
vt 0.592525 0.825079
vt 0.125000 0.750000
vt 0.125000 0.500000
vt 0.875000 0.500000
vt 0.625000 0.000000
vt 0.375000 0.198689
vt 0.625000 0.198689
vt 0.625000 0.750000
vt 0.375000 0.551311
vt 0.375000 0.750000
vt 0.375000 1.000000
vt 0.125000 0.750000
vt 0.125000 0.551311
vt 0.875000 0.750000
vt 0.625000 0.551311
vt 0.625000 0.000000
vt 0.375000 0.198689
vt 0.625000 0.198689
vt 0.375000 0.750000
vt 0.625000 0.551311
vt 0.375000 0.551311
vt 0.375000 1.000000
vt 0.625000 0.750000
vt 0.125000 0.750000
vt 0.125000 0.551311
vt 0.875000 0.750000
vt 0.375000 0.250000
vt 0.625000 0.000000
vt 0.625000 0.000000
vt 0.375000 0.750000
vt 0.625000 0.500000
vt 0.375000 0.750000
vt 0.375000 1.000000
vt 0.625000 0.750000
vt 0.375000 1.000000
vt 0.125000 0.573911
vt 0.125000 0.750000
vt 0.875000 0.750000
vt 0.625000 0.573911
vt 0.375000 0.250000
vt 0.625000 0.000000
vt 0.625000 0.000000
vt 0.625000 0.500000
vt 0.375000 0.750000
vt 0.375000 0.750000
vt 0.375000 1.000000
vt 0.625000 0.750000
vt 0.375000 1.000000
vt 0.125000 0.750000
vt 0.375000 0.573911
vt 0.125000 0.573911
vt 0.875000 0.750000
vt 0.625000 0.573911
vt 0.375000 0.250000
vt 0.625000 0.065516
vt 0.375000 0.065516
vt 0.375000 0.500000
vt 0.625000 0.250000
vt 0.625000 0.684484
vt 0.625000 0.500000
vt 0.125000 0.684484
vt 0.375000 0.684484
vt 0.875000 0.500000
vt 0.875000 0.684484
vt 0.625000 0.250000
vt 0.375000 0.065516
vt 0.375000 0.250000
vt 0.375000 0.500000
vt 0.625000 0.684484
vt 0.625000 0.500000
vt 0.125000 0.684484
vt 0.375000 0.684484
vt 0.875000 0.684484
vt 0.875000 0.500000
vt 0.375000 0.250000
vt 0.625000 0.000000
vt 0.375000 0.250000
vt 0.375000 0.500000
vt 0.625000 0.250000
vt 0.375000 0.500000
vt 0.625000 0.500000
vt 0.375000 0.750000
vt 0.625000 0.500000
vt 0.125000 0.734703
vt 0.375000 0.734703
vt 0.875000 0.500000
vt 0.625000 0.734703
vt 0.875000 0.734703
vt 0.375000 0.250000
vt 0.625000 0.000000
vt 0.375000 0.250000
vt 0.375000 0.500000
vt 0.625000 0.250000
vt 0.375000 0.500000
vt 0.625000 0.500000
vt 0.375000 0.750000
vt 0.625000 0.500000
vt 0.125000 0.734703
vt 0.375000 0.734703
vt 0.875000 0.500000
vt 0.625000 0.734703
vt 0.875000 0.734703
vt 0.594210 0.175268
vt 0.537906 0.175268
vt 0.375000 0.000000
vt 0.595640 0.424921
vt 0.539337 0.424921
vt 0.461099 0.325079
vt 0.539337 0.674573
vt 0.465006 0.574732
vt 0.536222 0.924920
vt 0.625000 1.000000
vt 0.461099 0.924921
vt 0.875000 0.750000
vt 0.375000 0.000000
vt 0.625000 1.000000
vt 0.875000 0.551311
vt 0.375000 0.000000
vt 0.625000 1.000000
vt 0.875000 0.551311
vt 0.375000 0.250000
vt 0.625000 0.500000
vt 0.625000 0.750000
vt 0.375000 0.573911
vt 0.875000 0.573911
vt 0.375000 0.250000
vt 0.625000 0.500000
vt 0.625000 0.750000
vt 0.875000 0.573911
vt 0.125000 0.500000
vt 0.625000 0.065516
vt 0.125000 0.500000
vt 0.625000 0.000000
vt 0.625000 0.250000
vt 0.375000 0.750000
vt 0.125000 0.500000
vt 0.625000 0.000000
vt 0.625000 0.250000
vt 0.375000 0.750000
vt 0.125000 0.500000
vn -1.0000 0.0000 0.0000
vn 0.0000 0.0000 -1.0000
vn 1.0000 0.0000 0.0000
vn 0.0000 0.0000 1.0000
vn 0.0000 -1.0000 0.0000
vn 0.0000 1.0000 0.0000
usemtl None
s off
f 53/1/1 56/2/1 31/3/1
f 49/4/1 55/5/1 54/6/1
f 33/7/1 50/8/1 27/9/1
f 39/10/2 31/3/2 48/11/2
f 41/12/2 47/13/2 46/14/2
f 40/15/2 42/16/2 33/7/2
f 35/17/3 39/10/3 71/18/3
f 66/19/3 72/20/3 69/21/3
f 40/15/3 65/22/3 67/23/3
f 1/24/4 35/17/4 62/25/4
f 58/26/4 64/27/4 61/28/4
f 37/29/4 57/30/4 59/31/4
f 39/10/5 1/32/5 31/33/5
f 33/34/6 37/29/6 40/15/6
f 29/35/3 41/36/3 42/37/3
f 38/38/1 44/39/1 36/40/1
f 21/41/2 38/38/2 36/40/2
f 21/42/6 44/39/6 41/43/6
f 29/44/5 43/45/5 38/38/5
f 26/46/3 45/47/3 46/48/3
f 32/49/1 47/50/1 48/51/1
f 17/52/2 34/53/2 32/49/2
f 17/54/6 48/51/6 45/55/6
f 26/56/5 47/50/5 34/53/5
f 11/57/2 50/58/2 20/59/2
f 28/60/4 51/61/4 52/62/4
f 11/63/1 30/64/1 28/65/1
f 28/60/6 49/66/6 11/67/6
f 20/68/5 51/69/5 30/64/5
f 2/70/2 54/71/2 13/72/2
f 25/73/4 56/74/4 24/75/4
f 2/76/1 25/77/1 24/78/1
f 2/79/6 56/80/6 53/81/6
f 13/82/5 55/83/5 25/77/5
f 3/84/3 57/85/3 60/86/3
f 22/87/4 15/88/4 3/84/4
f 22/87/1 59/89/1 23/90/1
f 22/87/6 60/91/6 58/92/6
f 15/93/5 59/89/5 57/94/5
f 9/95/3 63/96/3 7/97/3
f 18/98/4 9/95/4 7/97/4
f 18/98/1 61/99/1 19/100/1
f 18/98/6 63/101/6 62/102/6
f 19/100/5 64/103/5 9/104/5
f 6/105/2 65/106/2 68/107/2
f 14/108/3 8/109/3 6/110/3
f 16/111/4 66/112/4 67/113/4
f 14/108/6 68/114/6 66/115/6
f 8/116/5 67/117/5 65/118/5
f 4/119/2 72/120/2 71/121/2
f 10/122/3 5/123/3 4/124/3
f 12/125/4 70/126/4 69/127/4
f 10/122/6 71/128/6 70/129/6
f 5/130/5 69/131/5 72/132/5
f 51/133/1 33/7/1 52/134/1
f 33/7/1 31/3/1 55/5/1
f 52/134/1 33/7/1 55/5/1
f 1/135/1 27/9/1 54/6/1
f 27/9/1 50/8/1 49/4/1
f 49/4/1 54/6/1 27/9/1
f 54/6/1 53/1/1 1/135/1
f 56/2/1 55/5/1 31/3/1
f 1/135/1 53/1/1 31/3/1
f 49/4/1 52/134/1 55/5/1
f 33/7/1 51/133/1 50/8/1
f 43/136/2 40/15/2 44/137/2
f 40/15/2 39/10/2 47/13/2
f 44/137/2 40/15/2 47/13/2
f 31/3/2 33/7/2 46/14/2
f 33/7/2 42/16/2 41/12/2
f 41/12/2 46/14/2 33/7/2
f 46/14/2 45/138/2 31/3/2
f 48/11/2 47/13/2 39/10/2
f 31/3/2 45/138/2 48/11/2
f 41/12/2 44/137/2 47/13/2
f 40/15/2 43/136/2 42/16/2
f 65/22/3 37/29/3 68/139/3
f 37/29/3 35/17/3 72/20/3
f 68/139/3 37/29/3 72/20/3
f 39/10/3 40/15/3 69/21/3
f 40/15/3 67/23/3 66/19/3
f 66/19/3 69/21/3 40/15/3
f 69/21/3 70/140/3 39/10/3
f 71/18/3 72/20/3 35/17/3
f 39/10/3 70/140/3 71/18/3
f 66/19/3 68/139/3 72/20/3
f 40/15/3 37/29/3 65/22/3
f 64/27/4 60/141/4 27/142/4
f 60/141/4 57/30/4 27/142/4
f 64/27/4 27/142/4 1/24/4
f 35/17/4 37/29/4 61/28/4
f 37/29/4 59/31/4 58/26/4
f 58/26/4 61/28/4 37/29/4
f 61/28/4 62/25/4 35/17/4
f 63/143/4 64/27/4 1/24/4
f 62/25/4 63/143/4 1/24/4
f 58/26/4 60/141/4 64/27/4
f 37/29/4 27/142/4 57/30/4
f 39/10/5 35/17/5 1/32/5
f 33/34/6 27/144/6 37/29/6
f 29/35/3 21/145/3 41/36/3
f 38/38/1 43/45/1 44/39/1
f 21/41/2 29/146/2 38/38/2
f 21/42/6 36/40/6 44/39/6
f 29/44/5 42/147/5 43/45/5
f 26/46/3 17/148/3 45/47/3
f 32/49/1 34/53/1 47/50/1
f 17/52/2 26/149/2 34/53/2
f 17/54/6 32/49/6 48/51/6
f 26/56/5 46/150/5 47/50/5
f 11/57/2 49/151/2 50/58/2
f 28/60/4 30/152/4 51/61/4
f 11/63/1 20/153/1 30/64/1
f 28/60/6 52/154/6 49/66/6
f 20/68/5 50/155/5 51/69/5
f 2/70/2 53/156/2 54/71/2
f 25/73/4 55/157/4 56/74/4
f 2/76/1 13/158/1 25/77/1
f 2/79/6 24/75/6 56/80/6
f 13/82/5 54/159/5 55/83/5
f 3/84/3 15/88/3 57/85/3
f 22/87/4 23/90/4 15/88/4
f 22/87/1 58/92/1 59/89/1
f 22/87/6 3/160/6 60/91/6
f 15/93/5 23/90/5 59/89/5
f 9/95/3 64/161/3 63/96/3
f 18/98/4 19/100/4 9/95/4
f 18/98/1 62/102/1 61/99/1
f 18/98/6 7/162/6 63/101/6
f 19/100/5 61/99/5 64/103/5
f 6/105/2 8/163/2 65/106/2
f 14/108/3 16/164/3 8/109/3
f 16/111/4 14/165/4 66/112/4
f 14/108/6 6/166/6 68/114/6
f 8/116/5 16/111/5 67/117/5
f 4/119/2 5/167/2 72/120/2
f 10/122/3 12/168/3 5/123/3
f 12/125/4 10/169/4 70/126/4
f 10/122/6 4/170/6 71/128/6
f 5/130/5 12/125/5 69/131/5
o Cube.001_Cube.002
v -0.399364 1.287128 1.057321
v -0.399364 2.085857 1.057321
v -0.399364 1.287128 0.838593
v -0.399364 2.085857 0.838593
v 0.399364 1.287128 1.057321
v 0.399364 2.085857 1.057321
v 0.399364 1.287128 0.838593
v 0.399364 2.085857 0.838593
vt 0.625000 0.000000
vt 0.375000 0.250000
vt 0.375000 0.000000
vt 0.625000 0.250000
vt 0.375000 0.500000
vt 0.625000 0.500000
vt 0.375000 0.750000
vt 0.625000 0.750000
vt 0.375000 1.000000
vt 0.125000 0.750000
vt 0.125000 0.500000
vt 0.875000 0.500000
vt 0.625000 1.000000
vt 0.875000 0.750000
vn -1.0000 0.0000 0.0000
vn 0.0000 0.0000 -1.0000
vn 1.0000 0.0000 0.0000
vn 0.0000 0.0000 1.0000
vn 0.0000 -1.0000 0.0000
vn 0.0000 1.0000 0.0000
usemtl None
s off
f 74/171/7 75/172/7 73/173/7
f 76/174/8 79/175/8 75/172/8
f 80/176/9 77/177/9 79/175/9
f 78/178/10 73/179/10 77/177/10
f 79/175/11 73/180/11 75/181/11
f 76/182/12 78/178/12 80/176/12
f 74/171/7 76/174/7 75/172/7
f 76/174/8 80/176/8 79/175/8
f 80/176/9 78/178/9 77/177/9
f 78/178/10 74/183/10 73/179/10
f 79/175/11 77/177/11 73/180/11
f 76/182/12 74/184/12 78/178/12
o Cube.002_Cube.003
v -0.399364 0.221414 1.057321
v -0.399364 1.020143 1.057321
v -0.399364 0.221414 0.838593
v -0.399364 1.020143 0.838593
v 0.399364 0.221414 1.057321
v 0.399364 1.020143 1.057321
v 0.399364 0.221414 0.838593
v 0.399364 1.020143 0.838593
vt 0.625000 0.000000
vt 0.375000 0.250000
vt 0.375000 0.000000
vt 0.625000 0.250000
vt 0.375000 0.500000
vt 0.625000 0.500000
vt 0.375000 0.750000
vt 0.625000 0.750000
vt 0.375000 1.000000
vt 0.125000 0.750000
vt 0.125000 0.500000
vt 0.875000 0.500000
vt 0.625000 1.000000
vt 0.875000 0.750000
vn -1.0000 0.0000 0.0000
vn 0.0000 0.0000 -1.0000
vn 1.0000 0.0000 0.0000
vn 0.0000 0.0000 1.0000
vn 0.0000 -1.0000 0.0000
vn 0.0000 1.0000 0.0000
usemtl None
s off
f 82/185/13 83/186/13 81/187/13
f 84/188/14 87/189/14 83/186/14
f 88/190/15 85/191/15 87/189/15
f 86/192/16 81/193/16 85/191/16
f 87/189/17 81/194/17 83/195/17
f 84/196/18 86/192/18 88/190/18
f 82/185/13 84/188/13 83/186/13
f 84/188/14 88/190/14 87/189/14
f 88/190/15 86/192/15 85/191/15
f 86/192/16 82/197/16 81/193/16
f 87/189/17 85/191/17 81/194/17
f 84/196/18 82/198/18 86/192/18
o Cube.003_Cube.004
v -0.399364 0.221414 -0.826164
v -0.399364 1.020143 -0.826164
v -0.399364 0.221414 -1.044893
v -0.399364 1.020143 -1.044893
v 0.399364 0.221414 -0.826164
v 0.399364 1.020143 -0.826164
v 0.399364 0.221414 -1.044893
v 0.399364 1.020143 -1.044893
vt 0.625000 0.000000
vt 0.375000 0.250000
vt 0.375000 0.000000
vt 0.625000 0.250000
vt 0.375000 0.500000
vt 0.625000 0.500000
vt 0.375000 0.750000
vt 0.625000 0.750000
vt 0.375000 1.000000
vt 0.125000 0.750000
vt 0.125000 0.500000
vt 0.875000 0.500000
vt 0.625000 1.000000
vt 0.875000 0.750000
vn -1.0000 0.0000 0.0000
vn 0.0000 0.0000 -1.0000
vn 1.0000 0.0000 0.0000
vn 0.0000 0.0000 1.0000
vn 0.0000 -1.0000 0.0000
vn 0.0000 1.0000 0.0000
usemtl None
s off
f 90/199/19 91/200/19 89/201/19
f 92/202/20 95/203/20 91/200/20
f 96/204/21 93/205/21 95/203/21
f 94/206/22 89/207/22 93/205/22
f 95/203/23 89/208/23 91/209/23
f 92/210/24 94/206/24 96/204/24
f 90/199/19 92/202/19 91/200/19
f 92/202/20 96/204/20 95/203/20
f 96/204/21 94/206/21 93/205/21
f 94/206/22 90/211/22 89/207/22
f 95/203/23 93/205/23 89/208/23
f 92/210/24 90/212/24 94/206/24
o Cube.004_Cube.005
v -0.399364 1.331321 -0.826164
v -0.399364 2.130049 -0.826164
v -0.399364 1.331321 -1.044893
v -0.399364 2.130049 -1.044893
v 0.399364 1.331321 -0.826164
v 0.399364 2.130049 -0.826164
v 0.399364 1.331321 -1.044893
v 0.399364 2.130049 -1.044893
vt 0.625000 0.000000
vt 0.375000 0.250000
vt 0.375000 0.000000
vt 0.625000 0.250000
vt 0.375000 0.500000
vt 0.625000 0.500000
vt 0.375000 0.750000
vt 0.625000 0.750000
vt 0.375000 1.000000
vt 0.125000 0.750000
vt 0.125000 0.500000
vt 0.875000 0.500000
vt 0.625000 1.000000
vt 0.875000 0.750000
vn -1.0000 0.0000 0.0000
vn 0.0000 0.0000 -1.0000
vn 1.0000 0.0000 0.0000
vn 0.0000 0.0000 1.0000
vn 0.0000 -1.0000 0.0000
vn 0.0000 1.0000 0.0000
usemtl None
s off
f 98/213/25 99/214/25 97/215/25
f 100/216/26 103/217/26 99/214/26
f 104/218/27 101/219/27 103/217/27
f 102/220/28 97/221/28 101/219/28
f 103/217/29 97/222/29 99/223/29
f 100/224/30 102/220/30 104/218/30
f 98/213/25 100/216/25 99/214/25
f 100/216/26 104/218/26 103/217/26
f 104/218/27 102/220/27 101/219/27
f 102/220/28 98/225/28 97/221/28
f 103/217/29 101/219/29 97/222/29
f 100/224/30 98/226/30 102/220/30
o Cube.005_Cube.006
v 1.013384 1.331321 0.396585
v 1.013384 2.130049 0.396585
v 0.794655 1.331321 0.396585
v 0.794655 2.130049 0.396585
v 1.013384 1.331321 -0.402143
v 1.013384 2.130049 -0.402143
v 0.794655 1.331321 -0.402143
v 0.794655 2.130049 -0.402143
vt 0.625000 0.000000
vt 0.375000 0.250000
vt 0.375000 0.000000
vt 0.625000 0.250000
vt 0.375000 0.500000
vt 0.625000 0.500000
vt 0.375000 0.750000
vt 0.625000 0.750000
vt 0.375000 1.000000
vt 0.125000 0.750000
vt 0.125000 0.500000
vt 0.875000 0.500000
vt 0.625000 1.000000
vt 0.875000 0.750000
vn 0.0000 0.0000 1.0000
vn -1.0000 0.0000 0.0000
vn 0.0000 0.0000 -1.0000
vn 1.0000 0.0000 0.0000
vn 0.0000 -1.0000 0.0000
vn 0.0000 1.0000 0.0000
usemtl None
s off
f 106/227/31 107/228/31 105/229/31
f 108/230/32 111/231/32 107/228/32
f 112/232/33 109/233/33 111/231/33
f 110/234/34 105/235/34 109/233/34
f 111/231/35 105/236/35 107/237/35
f 108/238/36 110/234/36 112/232/36
f 106/227/31 108/230/31 107/228/31
f 108/230/32 112/232/32 111/231/32
f 112/232/33 110/234/33 109/233/33
f 110/234/34 106/239/34 105/235/34
f 111/231/35 109/233/35 105/236/35
f 108/238/36 106/240/36 110/234/36
o Cube.006_Cube.007
v 1.013384 0.276846 0.396585
v 1.013384 1.075575 0.396585
v 0.794655 0.276846 0.396585
v 0.794655 1.075575 0.396585
v 1.013384 0.276846 -0.402143
v 1.013384 1.075575 -0.402143
v 0.794655 0.276846 -0.402143
v 0.794655 1.075575 -0.402143
vt 0.625000 0.000000
vt 0.375000 0.250000
vt 0.375000 0.000000
vt 0.625000 0.250000
vt 0.375000 0.500000
vt 0.625000 0.500000
vt 0.375000 0.750000
vt 0.625000 0.750000
vt 0.375000 1.000000
vt 0.125000 0.750000
vt 0.125000 0.500000
vt 0.875000 0.500000
vt 0.625000 1.000000
vt 0.875000 0.750000
vn 0.0000 0.0000 1.0000
vn -1.0000 0.0000 0.0000
vn 0.0000 0.0000 -1.0000
vn 1.0000 0.0000 0.0000
vn 0.0000 -1.0000 0.0000
vn 0.0000 1.0000 0.0000
usemtl None
s off
f 114/241/37 115/242/37 113/243/37
f 116/244/38 119/245/38 115/242/38
f 120/246/39 117/247/39 119/245/39
f 118/248/40 113/249/40 117/247/40
f 119/245/41 113/250/41 115/251/41
f 116/252/42 118/248/42 120/246/42
f 114/241/37 116/244/37 115/242/37
f 116/244/38 120/246/38 119/245/38
f 120/246/39 118/248/39 117/247/39
f 118/248/40 114/253/40 113/249/40
f 119/245/41 117/247/41 113/250/41
f 116/252/42 114/254/42 118/248/42
o Cube.007_Cube.008
v -0.845937 0.276846 0.396585
v -0.845937 1.075575 0.396585
v -1.064666 0.276846 0.396585
v -1.064666 1.075575 0.396585
v -0.845937 0.276846 -0.402143
v -0.845937 1.075575 -0.402143
v -1.064666 0.276846 -0.402143
v -1.064666 1.075575 -0.402143
vt 0.625000 0.000000
vt 0.375000 0.250000
vt 0.375000 0.000000
vt 0.625000 0.250000
vt 0.375000 0.500000
vt 0.625000 0.500000
vt 0.375000 0.750000
vt 0.625000 0.750000
vt 0.375000 1.000000
vt 0.125000 0.750000
vt 0.125000 0.500000
vt 0.875000 0.500000
vt 0.625000 1.000000
vt 0.875000 0.750000
vn 0.0000 0.0000 1.0000
vn -1.0000 0.0000 0.0000
vn 0.0000 0.0000 -1.0000
vn 1.0000 0.0000 -0.0000
vn 0.0000 -1.0000 0.0000
vn 0.0000 1.0000 0.0000
usemtl None
s off
f 122/255/43 123/256/43 121/257/43
f 124/258/44 127/259/44 123/256/44
f 128/260/45 125/261/45 127/259/45
f 126/262/46 121/263/46 125/261/46
f 127/259/47 121/264/47 123/265/47
f 124/266/48 126/262/48 128/260/48
f 122/255/43 124/258/43 123/256/43
f 124/258/44 128/260/44 127/259/44
f 128/260/45 126/262/45 125/261/45
f 126/262/46 122/267/46 121/263/46
f 127/259/47 125/261/47 121/264/47
f 124/266/48 122/268/48 126/262/48
o Cube.008_Cube.009
v -0.845937 1.311024 0.396585
v -0.845937 2.109753 0.396585
v -1.064666 1.311024 0.396585
v -1.064666 2.109753 0.396585
v -0.845937 1.311024 -0.402143
v -0.845937 2.109753 -0.402143
v -1.064666 1.311024 -0.402143
v -1.064666 2.109753 -0.402143
vt 0.625000 0.000000
vt 0.375000 0.250000
vt 0.375000 0.000000
vt 0.625000 0.250000
vt 0.375000 0.500000
vt 0.625000 0.500000
vt 0.375000 0.750000
vt 0.625000 0.750000
vt 0.375000 1.000000
vt 0.125000 0.750000
vt 0.125000 0.500000
vt 0.875000 0.500000
vt 0.625000 1.000000
vt 0.875000 0.750000
vn 0.0000 0.0000 1.0000
vn -1.0000 0.0000 0.0000
vn 0.0000 0.0000 -1.0000
vn 1.0000 0.0000 -0.0000
vn 0.0000 -1.0000 0.0000
vn 0.0000 1.0000 0.0000
usemtl None
s off
f 130/269/49 131/270/49 129/271/49
f 132/272/50 135/273/50 131/270/50
f 136/274/51 133/275/51 135/273/51
f 134/276/52 129/277/52 133/275/52
f 135/273/53 129/278/53 131/279/53
f 132/280/54 134/276/54 136/274/54
f 130/269/49 132/272/49 131/270/49
f 132/272/50 136/274/50 135/273/50
f 136/274/51 134/276/51 133/275/51
f 134/276/52 130/281/52 129/277/52
f 135/273/53 133/275/53 129/278/53
f 132/280/54 130/282/54 134/276/54
